<?xml version="1.0" encoding="UTF-8" standalone="no"?>
<svg
   xmlns:dc="http://purl.org/dc/elements/1.1/"
   xmlns:cc="http://creativecommons.org/ns#"
   xmlns:rdf="http://www.w3.org/1999/02/22-rdf-syntax-ns#"
   xmlns:svg="http://www.w3.org/2000/svg"
   xmlns="http://www.w3.org/2000/svg"
   xmlns:sodipodi="http://sodipodi.sourceforge.net/DTD/sodipodi-0.dtd"
   xmlns:inkscape="http://www.inkscape.org/namespaces/inkscape"
   width="6.727499mm"
   height="6.6940637mm"
   viewBox="0 0 6.727499 6.6940636"
   version="1.1"
   id="svg90"
   inkscape:version="1.0 (4035a4fb49, 2020-05-01)"
   sodipodi:docname="AccessRadio.svg">
  <defs
     id="defs84" />
  <sodipodi:namedview
     inkscape:snap-nodes="false"
     id="base"
     pagecolor="#ffffff"
     bordercolor="#666666"
     borderopacity="1.0"
     inkscape:pageopacity="0.0"
     inkscape:pageshadow="2"
     inkscape:zoom="11.2"
     inkscape:cx="37.174417"
     inkscape:cy="23.972538"
     inkscape:document-units="mm"
     inkscape:current-layer="layer1"
     inkscape:document-rotation="0"
     showgrid="false"
     inkscape:window-width="1717"
     inkscape:window-height="1040"
     inkscape:window-x="187"
     inkscape:window-y="0"
     inkscape:window-maximized="0" />
  <metadata
     id="metadata87">
    <rdf:RDF>
      <cc:Work
         rdf:about="">
        <dc:format>image/svg+xml</dc:format>
        <dc:type
           rdf:resource="http://purl.org/dc/dcmitype/StillImage" />
        <dc:title />
      </cc:Work>
    </rdf:RDF>
  </metadata>
  <g
     transform="translate(-48.182491,-26.492565)"
     inkscape:label="Layer 1"
     inkscape:groupmode="layer"
     id="layer1">
    <path
       id="path34"
       d="m 51.340415,33.169846 c -0.359242,-0.03488 -0.587928,-0.08884 -0.901022,-0.212614 -0.963081,-0.38073 -1.639756,-1.11405 -1.956534,-2.120324 -0.04544,-0.144349 -0.08262,-0.275946 -0.08262,-0.292437 0,-0.0187 1.219064,-0.02999 3.241121,-0.02999 h 3.24112 l -0.02007,0.08694 c -0.136517,0.59114 -0.471036,1.191918 -0.903956,1.623455 -0.515854,0.514207 -1.237904,0.867431 -1.898724,0.928849 -0.39469,0.03668 -0.486288,0.03874 -0.719307,0.01611 z m -1.745138,-1.523547 c 0.02552,-0.02552 0.03794,-0.169157 0.03794,-0.438736 0,-0.4469 -0.01528,-0.483325 -0.195526,-0.466024 -0.08091,0.0078 -0.107122,0.02632 -0.114935,0.08133 -0.006,0.04275 0.0097,0.0789 0.03952,0.09032 0.04082,0.01567 0.04964,0.07906 0.04964,0.357107 0,0.329714 0.02251,0.413933 0.110651,0.413933 0.01912,0 0.05185,-0.01707 0.07271,-0.03794 z m 0.672336,-0.01575 c 0.317601,-0.187612 0.199968,-0.894752 -0.148842,-0.894752 -0.218242,0 -0.343042,0.126977 -0.37841,0.385002 -0.05459,0.398288 0.237647,0.680825 0.527252,0.50975 z M 49.99858,31.424284 c -0.100639,-0.143681 -0.03439,-0.498802 0.09305,-0.498802 0.07514,0 0.142267,0.134256 0.142267,0.284534 0,0.150277 -0.06712,0.284532 -0.142267,0.284532 -0.0241,0 -0.06598,-0.03162 -0.09305,-0.07026 z m 1.08955,0.212204 c 0.112285,-0.05807 0.163765,-0.147404 0.163765,-0.284206 0,-0.149815 -0.05757,-0.234616 -0.200496,-0.295316 l -0.126272,-0.05363 0.06538,-0.07538 c 0.07592,-0.08754 0.07867,-0.102996 0.02744,-0.154227 -0.07178,-0.07177 -0.151379,-0.03761 -0.261477,0.112232 -0.234309,0.318886 -0.260291,0.56265 -0.07646,0.717332 0.111252,0.09361 0.266823,0.106264 0.408126,0.03319 z m -0.278843,-0.179877 c -0.04877,-0.04877 -0.04877,-0.159892 0,-0.208658 0.122793,-0.122792 0.315713,0.05459 0.199289,0.183237 -0.06478,0.07159 -0.14313,0.08158 -0.199289,0.02542 z m 0.74611,0.189689 c 0.04999,-0.04999 0.04788,-0.07406 -0.01168,-0.133623 -0.03745,-0.03745 -0.06458,-0.04161 -0.110653,-0.01695 -0.05964,0.03192 -0.08196,0.125433 -0.03996,0.167437 0.03355,0.03355 0.120955,0.02447 0.162291,-0.01686 z m 0.433121,-0.436284 v -0.458415 h -0.142267 c -0.122149,0 -0.143653,0.0098 -0.152087,0.06899 -0.0063,0.04414 0.01364,0.08155 0.05532,0.10386 0.05961,0.0319 0.06515,0.06387 0.06515,0.376248 0,0.18776 0.01008,0.351466 0.02241,0.363792 0.01233,0.01233 0.05145,0.01825 0.08694,0.01317 0.06157,-0.0088 0.06453,-0.03025 0.06453,-0.467652 z m 0.646994,0.41307 c 0.018,-0.03363 0.03272,-0.126106 0.03272,-0.205496 v -0.144345 h 0.127451 c 0.0846,0 0.133622,-0.01608 0.145805,-0.04783 0.02982,-0.07772 -0.05062,-0.141865 -0.1779,-0.141865 -0.109035,0 -0.117031,-0.0061 -0.103094,-0.07904 0.01331,-0.06963 0.0312,-0.07904 0.150308,-0.07904 0.09569,0 0.140964,-0.01502 0.154933,-0.05143 0.03958,-0.103128 -0.04139,-0.141366 -0.278729,-0.131641 l -0.224271,0.0092 -0.0089,0.425205 c -0.0049,0.233862 -0.0017,0.443706 0.0069,0.466318 0.02389,0.06226 0.13767,0.04921 0.174725,-0.02004 z m 0.533732,0.01955 c 0.01898,-0.02288 0.04403,-0.122466 0.05564,-0.221303 0.01161,-0.09884 0.02983,-0.17958 0.04048,-0.179431 0.01065,1.7e-4 0.05503,0.09618 0.09864,0.213399 0.06867,0.184597 0.08979,0.213129 0.157795,0.213129 0.06566,0 0.0899,-0.02847 0.148077,-0.173882 0.03826,-0.09563 0.07872,-0.202335 0.08991,-0.237111 0.01404,-0.0436 0.03198,5.56e-4 0.05781,0.142266 0.02061,0.113023 0.04868,0.223281 0.0624,0.245015 0.03476,0.05508 0.145835,0.04946 0.168079,-0.0085 0.02391,-0.06231 -0.1098,-0.808335 -0.154539,-0.862245 -0.01882,-0.02268 -0.06382,-0.03699 -0.09999,-0.03181 -0.05093,0.0073 -0.08722,0.06825 -0.16084,0.270129 -0.05229,0.143385 -0.102277,0.260755 -0.111084,0.260822 -0.0088,7.1e-5 -0.03268,-0.05323 -0.05304,-0.118433 -0.08359,-0.267655 -0.165288,-0.418896 -0.226296,-0.418896 -0.09733,0 -0.120311,0.05716 -0.189891,0.472254 -0.04809,0.286869 -0.0566,0.404439 -0.03148,0.434704 0.04398,0.053 0.104274,0.05296 0.148317,-1.16e-4 z m -4.89505,-2.100303 c 7.8e-4,-0.162478 0.118124,-0.655077 0.216525,-0.908926 0.706722,-1.823133 2.848243,-2.630886 4.594884,-1.733127 0.717908,0.369 1.283133,1.002309 1.565515,1.754088 0.111679,0.297321 0.198542,0.676657 0.198542,0.867036 v 0.10787 h -0.341162 -0.341164 l -0.05418,-0.286662 c -0.171309,-0.90618 -0.829737,-1.658638 -1.719843,-1.965444 -0.890594,-0.306975 -1.851034,-0.104524 -2.578982,0.543623 -0.284745,0.253529 -0.562036,0.668546 -0.688656,1.030699 -0.0514,0.147024 -0.156361,0.59324 -0.156361,0.664757 0,0.0071 -0.156493,0.01302 -0.347763,0.01302 h -0.347765 z m 1.030753,-0.01581 c 0.101026,-0.579439 0.321684,-1.004934 0.705365,-1.360153 0.744289,-0.689082 1.821023,-0.811429 2.702509,-0.307082 0.570962,0.326679 1.016544,0.976666 1.110423,1.619813 l 0.02192,0.15017 h -0.378927 -0.378925 l -0.01917,-0.118555 c -0.03429,-0.212083 -0.225372,-0.559134 -0.408893,-0.742657 -0.718663,-0.718663 -1.834401,-0.594034 -2.394994,0.267522 -0.06473,0.09948 -0.142833,0.273757 -0.173563,0.387281 l -0.05587,0.206409 H 49.660927 49.28703 Z m 1.118664,0.04742 c 0,-0.110335 0.187927,-0.448897 0.320503,-0.577556 0.634862,-0.616115 1.688622,-0.349675 1.941608,0.490931 l 0.04272,0.14195 h -1.152429 c -1.076482,0 -1.152427,-0.0036 -1.152403,-0.05532 z"
       style="fill:#ffffff;stroke-width:0.0316147"
       sodipodi:nodetypes="ssssscsssssssssssssssssssssssscssssssssssssssscssssssssscssssssscssscscsssssssssscssssccssssscccsssssscssssscccsssscccsssscss" />
  </g>
</svg>
